<svg version="1" xmlns="http://www.w3.org/2000/svg" width="269.333" height="269.333" viewBox="0 0 202.000000 202.000000"><path d="M64.9 28.4c-.2.2-2.2.6-4.4.9-19.9 2.8-40.2 17.2-51.2 36.5-10.8 18.7-12 45-2.9 64.7 6.8 14.8 18.1 26.9 32.6 34.8 22.1 12.1 53.8 10.8 74.3-3.1l4.5-3 2.4 2.8c3.7 4.5 11.1 8.9 17.8 10.6 12.8 3.2 25.7-.3 35-9.7 13.9-14.1 13.7-37.6-.4-51.3-5.6-5.4-11.4-8.4-19.1-9.8l-6.3-1.2-.6-6.1c-2.3-22.8-13.9-41.7-33.2-54.5-3.9-2.5-8.6-5.2-10.5-5.9-1.9-.7-4.3-1.7-5.4-2.1-5.6-2.2-12-3.2-21.6-3.5-5.9-.2-10.8-.2-11-.1zM167 28.9c-11.2 3.4-18.8 12.9-19.7 24.6-.8 10.2 5.3 20.6 15.1 25.8 5.7 3 18.4 3 24.1 0 5.4-2.8 10-7.4 12.7-12.5 3.1-6 3.1-17.5.1-23.4-2.7-5-7.6-10-12.7-12.6-4.2-2.2-15.2-3.2-19.6-1.9z"/></svg>