<?xml version="1.0" standalone="no"?><!-- Generator: Gravit.io --><svg xmlns="http://www.w3.org/2000/svg" xmlns:xlink="http://www.w3.org/1999/xlink" style="isolation:isolate" viewBox="381 179 228 172" width="228" height="172"><g id="Group" filter="url(#5q3iwQEW8CpUoV5jcvyi6EW458netiHq)"><path d=" M 391 262 C 391 221.71 423.934 189 464.5 189 C 505.066 189 538 221.71 538 262 C 538 302.29 505.066 335 464.5 335 C 423.934 335 391 302.29 391 262 Z " fill="rgb(72,70,104)"/><path d=" M 501.5 298.5 C 501.5 278.355 517.855 262 538 262 C 558.145 262 574.5 278.355 574.5 298.5 C 574.5 318.645 558.145 335 538 335 C 517.855 335 501.5 318.645 501.5 298.5 Z " fill="rgb(12,204,102)"/><path d=" M 538 216 C 538 201.098 550.322 189 565.5 189 C 580.678 189 593 201.098 593 216 C 593 230.902 580.678 243 565.5 243 C 550.322 243 538 230.902 538 216 Z " fill="rgb(0,145,255)"/></g><defs><filter id="5q3iwQEW8CpUoV5jcvyi6EW458netiHq" x="-200%" y="-200%" width="400%" height="400%"><feOffset xmlns="http://www.w3.org/2000/svg" in="SourceAlpha" result="offOut" dx="3" dy="3"/><feGaussianBlur xmlns="http://www.w3.org/2000/svg" in="offOut" result="blurOut" stdDeviation="2.5"/><feComponentTransfer xmlns="http://www.w3.org/2000/svg" in="blurOut" result="opacOut"><feFuncA xmlns="http://www.w3.org/2000/svg" type="table" tableValues="0 0.5"/></feComponentTransfer><feBlend xmlns="http://www.w3.org/2000/svg" in="SourceGraphic" in2="opacOut" mode="normal"/></filter></defs></svg>